<?xml version="1.0" encoding="utf-8"?>
<!-- Generator: Adobe Illustrator 19.2.0, SVG Export Plug-In . SVG Version: 6.00 Build 0)  -->
<svg version="1.1" id="Layer_1" xmlns="http://www.w3.org/2000/svg" xmlns:xlink="http://www.w3.org/1999/xlink" x="0px" y="0px"
	 viewBox="0 0 458.9 458.9" style="enable-background:new 0 0 458.9 458.9;" xml:space="preserve">
<style type="text/css">
	.st0{fill:#FFFFFF;}
</style>
<g>
	<g>
		<g>
			<path class="st0" d="M244.2,130.3C244.1,129.9,244.4,130.8,244.2,130.3L244.2,130.3z"/>
			<path class="st0" d="M245.9,132.8c4.7,4.5,12.8,1.3,12.8-5.3c0-6.6-8.1-9.9-12.8-5.3c-2.1,2.1-2.8,5.4-1.6,8.2
				C244.6,131.3,245.2,132.1,245.9,132.8z"/>
			<path class="st0" d="M440.7,211c-10.3-12.7-24.3-22.1-39.9-26.7c-2.3-48.6-42.5-87.4-91.7-87.4c-15.6,0-31,4-44.5,11.5
				c-3.6,2-4.9,6.6-2.9,10.2c2,3.6,6.6,4.9,10.2,2.9c11.3-6.3,24.2-9.6,37.2-9.6c42.3,0,76.8,34.4,76.8,76.8c0,0.4,0,0.9,0,1.3
				c-0.1,3.6,2.4,6.7,5.9,7.5c14.6,3.2,27.8,11.4,37.3,23.1c9.6,11.8,14.9,26.7,14.9,42c0,36.7-29.9,66.6-66.6,66.6h-2
				c7.1-11.1,11.3-24.3,11.3-38.4c0-27.9-16.5-53.3-41.5-64.9c-0.5-36.4-30.3-65.9-66.8-65.9c-8.2,0-16.4,1.5-24.1,4.5
				c-5.9-17.8-16.9-33.9-31.6-45.8c-17.4-14.1-39.3-21.8-61.8-21.8c-52.8,0-96,41.8-98.2,94.1c-16.8,5-31.9,15-43.1,28.7
				C6.9,235.2,0,254.7,0,274.7c0,48.2,39.2,87.4,87.4,87.4h227.9c18.1,0,34.7-6.8,47.3-18h14.8c45,0,81.6-36.6,81.6-81.6
				C458.9,243.8,452.5,225.5,440.7,211z M315.2,347.1H87.4v0c-39.9,0-72.4-32.5-72.4-72.4c0-16.6,5.7-32.8,16.2-45.6
				c10.3-12.7,24.7-21.6,40.5-25.1c3.5-0.8,5.9-3.9,5.9-7.4l0-0.3c0-0.4,0-0.8,0-1.2c0-45.9,37.4-83.3,83.3-83.3
				c19.3,0,37.4,6.4,52.3,18.5c14.5,11.8,24.8,28.2,28.9,46.3c0.5,2.3,2.1,4.2,4.3,5.2c2.2,1,4.6,0.8,6.7-0.3
				c7.7-4.3,16.4-6.6,25.2-6.6c28.6,0,51.8,23.2,51.8,51.8c0,1,0,2.1-0.1,3.5c-0.2,3.3,1.8,6.4,4.9,7.5c22,8.2,36.8,29.4,36.8,52.9
				C371.6,321.8,346.3,347.1,315.2,347.1z"/>
		</g>
	</g>
</g>
</svg>
