<?xml version="1.0" encoding="utf-8"?>
<!-- Generator: Adobe Illustrator 19.2.0, SVG Export Plug-In . SVG Version: 6.00 Build 0)  -->
<svg version="1.1" id="Layer_1" xmlns="http://www.w3.org/2000/svg" xmlns:xlink="http://www.w3.org/1999/xlink" x="0px" y="0px"
	 viewBox="0 0 386.6 386.6" style="enable-background:new 0 0 386.6 386.6;" xml:space="preserve">
<style type="text/css">
	.st0{fill:#FFFFFF;}
</style>
<g>
	<g>
		<path class="st0" d="M345.1,189.7c-0.5-36.4-30.3-65.9-66.8-65.9c-8.2,0-16.4,1.5-24.1,4.5c-5.9-17.8-16.9-33.9-31.6-45.8
			c-17.4-14.1-39.3-21.8-61.8-21.8c-52.8,0-96,41.8-98.2,94.1c-16.8,5-31.9,15-43.1,28.7C6.9,199,0,218.6,0,238.6
			C0,286.8,39.2,326,87.4,326h227.9c39.4,0,71.4-32,71.4-71.4C386.6,226.7,370.1,201.2,345.1,189.7z M315.2,310.9H87.4
			c-39.9,0-72.4-32.5-72.4-72.4c0-16.6,5.7-32.8,16.2-45.6c10.3-12.7,24.7-21.6,40.5-25.1c3.5-0.8,5.9-3.9,5.9-7.4v-0.2
			c0-0.4,0-0.8,0-1.2c0-45.9,37.4-83.3,83.3-83.3c19.3,0,37.4,6.4,52.3,18.5c14.5,11.8,24.8,28.2,28.9,46.3c0.5,2.3,2.1,4.2,4.3,5.2
			s4.6,0.8,6.7-0.3c7.7-4.3,16.4-6.6,25.2-6.6c28.6,0,51.8,23.2,51.8,51.8c0,1,0,2.1-0.1,3.5c-0.2,3.3,1.8,6.4,4.9,7.5
			c22,8.2,36.8,29.4,36.8,52.9C371.6,285.6,346.3,310.9,315.2,310.9z"/>
	</g>
</g>
</svg>
