<?xml version="1.0" encoding="utf-8"?>
<!-- Generator: Adobe Illustrator 19.2.0, SVG Export Plug-In . SVG Version: 6.00 Build 0)  -->
<svg version="1.1" id="Layer_1" xmlns="http://www.w3.org/2000/svg" xmlns:xlink="http://www.w3.org/1999/xlink" x="0px" y="0px"
	 viewBox="0 0 438.2 438.2" style="enable-background:new 0 0 438.2 438.2;" xml:space="preserve">
<style type="text/css">
	.st0{fill:#FFFFFF;}
</style>
<g>
	<g>
		<g>
			<path class="st0" d="M270.7,103.3c-63.9,0-115.8,52-115.8,115.8c0,63.9,52,115.8,115.8,115.8s115.8-52,115.8-115.8
				C386.6,155.2,334.6,103.3,270.7,103.3z M323,305.3c-38.5-10.9-65.1-45.9-65.1-86.2c0-6.1,0.6-12.2,1.8-18.1
				c0.8-4.1-1.8-8-5.8-8.9c-4.1-0.8-8,1.8-8.9,5.8c-1.4,6.9-2.1,14-2.1,21.1c0,41.6,24.4,78.4,61.1,95.1
				c-10.4,3.7-21.6,5.7-33.3,5.7c-55.6,0-100.8-45.2-100.8-100.8c0-55.6,45.2-100.8,100.8-100.8c11.7,0,22.9,2,33.4,5.7
				c-14.9,6.8-28.3,17.2-38.6,30.2c-2.6,3.2-2,8,1.2,10.5c1.4,1.1,3,1.6,4.7,1.6c2.2,0,4.4-1,5.9-2.8c11.7-14.7,27.8-25.5,45.7-30.6
				c29.1,17.7,48.5,49.7,48.5,86.2C371.6,255.6,352.1,287.6,323,305.3z"/>
			<path class="st0" d="M253.1,174.1c-1.3,3.1-0.3,6.7,2.3,8.8c2.4,1.9,5.8,2.1,8.5,0.6c3.1-1.9,4.5-5.9,3.1-9.3
				C264.5,168,255.6,168.1,253.1,174.1z"/>
			<path class="st0" d="M266.9,174.1C267.1,174.6,266.7,173.7,266.9,174.1L266.9,174.1z"/>
			<path class="st0" d="M270.7,348.4c-4.1,0-7.5,3.4-7.5,7.5v74.8c0,4.1,3.4,7.5,7.5,7.5s7.5-3.4,7.5-7.5v-74.8
				C278.2,351.7,274.9,348.4,270.7,348.4z"/>
			<path class="st0" d="M270.7,89.8c4.1,0,7.5-3.4,7.5-7.5V7.5c0-4.1-3.4-7.5-7.5-7.5s-7.5,3.4-7.5,7.5v74.8
				C263.2,86.5,266.6,89.8,270.7,89.8z"/>
			<path class="st0" d="M168.7,310.5l-52.9,52.9c-2.9,2.9-2.9,7.7,0,10.6c1.5,1.5,3.4,2.2,5.3,2.2s3.8-0.7,5.3-2.2l52.9-52.9
				c2.9-2.9,2.9-7.7,0-10.6C176.4,307.6,171.7,307.6,168.7,310.5z"/>
			<path class="st0" d="M141.5,219.1c0-4.1-3.4-7.5-7.5-7.5H59.1c-4.1,0-7.5,3.4-7.5,7.5s3.4,7.5,7.5,7.5H134
				C138.1,226.6,141.5,223.2,141.5,219.1z"/>
			<path class="st0" d="M168.7,127.7c1.5,1.5,3.4,2.2,5.3,2.2s3.8-0.7,5.3-2.2c2.9-2.9,2.9-7.7,0-10.6l-52.9-52.9
				c-2.9-2.9-7.7-2.9-10.6,0c-2.9,2.9-2.9,7.7,0,10.6L168.7,127.7z"/>
			<path class="st0" d="M330,342.6c-1.6-3.8-6-5.6-9.8-4.1c-3.8,1.6-5.6,6-4.1,9.8l7.7,18.6c1.2,2.9,4,4.6,6.9,4.6
				c1,0,1.9-0.2,2.9-0.6c3.8-1.6,5.6-6,4.1-9.8L330,342.6z"/>
			<path class="st0" d="M211.5,95.6c1.2,2.9,4,4.6,6.9,4.6c1,0,1.9-0.2,2.9-0.6c3.8-1.6,5.6-6,4.1-9.8l-7.7-18.6
				c-1.6-3.8-6-5.6-9.8-4.1s-5.6,6-4.1,9.8L211.5,95.6z"/>
			<path class="st0" d="M221.3,338.6c-3.8-1.6-8.2,0.2-9.8,4.1l-7.7,18.6c-1.6,3.8,0.2,8.2,4.1,9.8c0.9,0.4,1.9,0.6,2.9,0.6
				c2.9,0,5.7-1.7,6.9-4.6l7.7-18.6C226.9,344.5,225.1,340.1,221.3,338.6z"/>
			<path class="st0" d="M320.2,99.6c0.9,0.4,1.9,0.6,2.9,0.6c2.9,0,5.7-1.7,6.9-4.6l7.7-18.6c1.6-3.8-0.2-8.2-4.1-9.8
				c-3.8-1.6-8.2,0.2-9.8,4.1l-7.7,18.6C314.6,93.7,316.4,98.1,320.2,99.6z"/>
			<path class="st0" d="M141.5,264.5l-18.6,7.7c-3.8,1.6-5.6,6-4.1,9.8c1.2,2.9,4,4.6,6.9,4.6c1,0,1.9-0.2,2.9-0.6l18.6-7.7
				c3.8-1.6,5.6-6,4.1-9.8S145.3,262.9,141.5,264.5z"/>
			<path class="st0" d="M147.2,159.8l-18.6-7.7c-3.8-1.6-8.2,0.2-9.8,4.1s0.2,8.2,4.1,9.8l18.6,7.7c0.9,0.4,1.9,0.6,2.9,0.6
				c2.9,0,5.7-1.7,6.9-4.6C152.9,165.8,151.1,161.4,147.2,159.8z"/>
		</g>
	</g>
</g>
</svg>
