<?xml version="1.0" encoding="utf-8"?>
<!-- Generator: Adobe Illustrator 19.2.0, SVG Export Plug-In . SVG Version: 6.00 Build 0)  -->
<svg version="1.1" id="Layer_1" xmlns="http://www.w3.org/2000/svg" xmlns:xlink="http://www.w3.org/1999/xlink" x="0px" y="0px"
	 viewBox="0 0 386.6 386.6" style="enable-background:new 0 0 386.6 386.6;" xml:space="preserve">
<style type="text/css">
	.st0{fill:#FFFFFF;}
</style>
<g>
	<g>
		<g>
			<path class="st0" d="M345.1,131.7c-0.5-36.4-30.3-65.9-66.8-65.9c-8.2,0-16.4,1.5-24.1,4.5c-5.9-17.8-16.9-33.9-31.6-45.8
				c-17.4-14.1-39.3-21.8-61.8-21.8c-52.8,0-96,41.8-98.2,94.1c-16.8,5-31.9,15-43.1,28.7C6.9,141,0,160.5,0,180.5
				c0,48.2,39.2,87.4,87.4,87.4h227.9c39.4,0,71.4-32,71.4-71.4C386.6,168.6,370.1,143.2,345.1,131.7z M315.2,252.9H87.4
				c-39.9,0-72.4-32.5-72.4-72.4c0-16.6,5.7-32.8,16.2-45.6c10.3-12.7,24.7-21.6,40.5-25.1c3.5-0.8,5.9-3.9,5.9-7.4l0-0.3
				c0-0.4,0-0.8,0-1.2c0-45.9,37.4-83.3,83.3-83.3c19.3,0,37.4,6.4,52.3,18.5c14.5,11.8,24.8,28.2,28.9,46.3
				c0.5,2.3,2.1,4.2,4.3,5.2c2.2,1,4.6,0.8,6.7-0.3c7.7-4.3,16.4-6.6,25.2-6.6c28.6,0,51.8,23.2,51.8,51.8c0,1,0,2.1-0.1,3.5
				c-0.2,3.3,1.8,6.4,4.9,7.5c22,8.2,36.8,29.4,36.8,52.9C371.6,227.6,346.3,252.9,315.2,252.9z"/>
			<path class="st0" d="M91.8,331.5c-5.2,4.4-1.9,13.2,4.9,13.2c3.5,0,6.7-2.6,7.4-6C105.4,331.8,97.1,327,91.8,331.5z"/>
			<path class="st0" d="M156.5,331.3c-2.6,2-3.6,5.7-2.3,8.8c1.2,2.8,3.9,4.6,6.9,4.6c3.5,0,6.5-2.5,7.3-5.9
				C170,332.1,161.9,327.1,156.5,331.3z"/>
			<path class="st0" d="M221.1,331.2c-2.7,1.9-3.8,5.5-2.7,8.6c1.1,2.9,3.9,5,7.1,5c3.5,0,6.6-2.5,7.3-6
				C234.3,332.2,226.6,327.2,221.1,331.2z"/>
			<path class="st0" d="M285.1,331.5c-2.5,2.1-3.3,5.7-2,8.8c1.2,2.7,3.9,4.5,6.9,4.5c3.7,0,6.9-2.8,7.4-6.4
				C298.4,331.6,290.2,327.2,285.1,331.5z"/>
			<path class="st0" d="M64.5,305.5c3.5,0,6.7-2.6,7.4-6c0.6-3.1-0.8-6.4-3.6-7.9c-2.7-1.6-6.3-1.3-8.7,0.8
				C54.4,296.7,57.6,305.5,64.5,305.5z"/>
			<path class="st0" d="M124.4,292c-2.6,2-3.7,5.6-2.5,8.7c1.1,2.8,3.9,4.8,7,4.8c3.4,0,6.4-2.4,7.3-5.7
				C137.9,293.1,129.9,287.8,124.4,292z"/>
			<path class="st0" d="M188.3,292.4c-2.2,2-3.1,5.2-2.1,8c1,3,3.9,5.1,7.1,5.1c3.6,0,6.7-2.7,7.4-6.2
				C201.9,292.4,193.5,287.8,188.3,292.4z"/>
			<path class="st0" d="M253,292.2c-2.5,2.1-3.4,5.6-2.2,8.7c1.1,2.8,3.9,4.6,6.9,4.6c3.5,0,6.5-2.5,7.3-5.9
				C266.6,292.8,258.4,287.8,253,292.2z"/>
			<path class="st0" d="M322.2,305.5c3.6,0,6.8-2.7,7.4-6.3c0.5-2.9-0.8-5.9-3.2-7.5c-2.9-1.9-6.7-1.6-9.2,0.7
				C312.2,297,315.5,305.5,322.2,305.5z"/>
			<path class="st0" d="M59.7,370.6c-5.3,4.4-2.1,13.3,4.8,13.3c3.5,0,6.6-2.5,7.3-5.9C73.3,371.3,65.1,366.2,59.7,370.6z"/>
			<path class="st0" d="M124.5,370.4c-2.7,1.9-3.8,5.5-2.7,8.6c1.1,2.9,3.9,5,7.1,5c3.5,0,6.6-2.6,7.4-6
				C137.6,371.3,129.9,366.5,124.5,370.4z"/>
			<path class="st0" d="M197.2,370c-2.8-1.7-6.4-1.3-8.8,0.8c-5.1,4.5-1.7,13.1,5,13.1c3.6,0,6.7-2.7,7.4-6.2
				C201.2,374.7,199.8,371.6,197.2,370z"/>
			<path class="st0" d="M261.3,369.9c-2.8-1.5-6.3-1.1-8.7,1.1c-4.9,4.5-1.6,13,5.1,13c3.5,0,6.6-2.5,7.3-6
				C265.7,374.8,264.2,371.4,261.3,369.9z"/>
			<path class="st0" d="M317.3,370.7c-5.2,4.4-1.9,13.2,4.9,13.2c3.5,0,6.7-2.6,7.4-6C330.9,371.1,322.6,366.2,317.3,370.7z"/>
		</g>
	</g>
</g>
</svg>
