<?xml version="1.0" encoding="utf-8"?>
<!-- Generator: Adobe Illustrator 19.2.0, SVG Export Plug-In . SVG Version: 6.00 Build 0)  -->
<svg version="1.1" id="Layer_1" xmlns="http://www.w3.org/2000/svg" xmlns:xlink="http://www.w3.org/1999/xlink" x="0px" y="0px"
	 viewBox="0 0 415 415" style="enable-background:new 0 0 415 415;" xml:space="preserve">
<style type="text/css">
	.st0{fill:#FFFFFF;}
</style>
<g>
	<g>
		<path class="st0" d="M325.7,3.8c-1.3-2.3-3.8-3.8-6.5-3.8H164.6c-3.2,0-6.1,2.1-7.1,5.1L91.2,201.4c-0.8,2.3-0.4,4.8,1,6.8
			c1.4,2,3.7,3.1,6.1,3.1h62.8L88.8,404.9c-1.3,3.4,0.1,7.3,3.3,9.1c1.2,0.7,2.5,1,3.8,1c2.2,0,4.3-0.9,5.8-2.7l201.2-240.5
			c1.9-2.2,2.3-5.3,1-8c-1.2-2.6-3.9-4.3-6.8-4.3H239l86.7-148.2C327,9,327,6.1,325.7,3.8z M219.4,163.2c-1.4,2.3-1.4,5.2,0,7.5
			c1.3,2.3,3.8,3.8,6.5,3.8H281L118.2,369.1l60.8-162.7c0.9-2.3,0.5-4.9-0.9-6.9c-1.4-2-3.7-3.2-6.2-3.2h-63.2L169.9,15h136.1
			L219.4,163.2z"/>
	</g>
</g>
</svg>
