<?xml version="1.0" encoding="utf-8"?>
<!-- Generator: Adobe Illustrator 19.2.0, SVG Export Plug-In . SVG Version: 6.00 Build 0)  -->
<svg version="1.1" id="Layer_1" xmlns="http://www.w3.org/2000/svg" xmlns:xlink="http://www.w3.org/1999/xlink" x="0px" y="0px"
	 viewBox="0 0 395.4 395.4" style="enable-background:new 0 0 395.4 395.4;" xml:space="preserve">
<style type="text/css">
	.st0{fill:#FFFFFF;}
</style>
<g>
	<g>
		<g>
			<path class="st0" d="M116.7,0c-9.7,0-19.6,0.7-29.2,2.2C83.8,2.7,81,5.9,81,9.6s2.7,6.9,6.4,7.4c56,8.3,105.8,43,133.2,92.8
				c2,3.6,6.6,5,10.2,3c3.6-2,5-6.6,3-10.2c-14.5-26.3-35.1-49.3-59.7-66.6c-10.9-7.7-22.6-14.3-34.9-19.6
				c90.1,11.1,160.2,88.2,160.2,181.3c0,93.1-70,170.2-160.1,181.3c26.8-11.7,50.9-29.2,70.4-51.6c31.3-35.9,48.5-82,48.5-129.7
				c0-10.8-0.9-21.6-2.6-32.2c-0.7-4.1-4.5-6.9-8.6-6.2c-4.1,0.7-6.9,4.5-6.2,8.6c1.6,9.8,2.4,19.8,2.4,29.8
				c0,44.1-15.9,86.6-44.8,119.9c-28.6,32.9-68,54.5-110.9,60.9c-3.7,0.5-6.4,3.7-6.4,7.4s2.7,6.9,6.4,7.4
				c9.6,1.4,19.5,2.2,29.2,2.2c109,0,197.7-88.7,197.7-197.7S225.7,0,116.7,0z"/>
			<path class="st0" d="M248.2,138.8c0.6-3.1-0.8-6.3-3.5-7.9c-2.8-1.7-6.4-1.3-8.8,0.8c-5.1,4.5-1.7,13.1,5,13.1
				C244.4,144.8,247.5,142.2,248.2,138.8z"/>
		</g>
	</g>
</g>
</svg>
