<?xml version="1.0" encoding="utf-8"?>
<!-- Generator: Adobe Illustrator 19.2.0, SVG Export Plug-In . SVG Version: 6.00 Build 0)  -->
<svg version="1.1" id="Layer_1" xmlns="http://www.w3.org/2000/svg" xmlns:xlink="http://www.w3.org/1999/xlink" x="0px" y="0px"
	 viewBox="0 0 395.4 395.4" style="enable-background:new 0 0 395.4 395.4;" xml:space="preserve">
<style type="text/css">
	.st0{fill:#FFFFFF;}
</style>
<g>
	<g>
		<g>
			<path class="st0" d="M197.7,0C88.7,0,0,88.7,0,197.7s88.7,197.7,197.7,197.7s197.7-88.7,197.7-197.7S306.7,0,197.7,0z
				 M311.1,54.5c9.8,7.8,18.8,16.6,26.9,26.2c-4.3-0.7-8.3-0.7-12,0.2c-7.2,1.8-13,6.6-16.7,14c-0.9,1.7-2.7,2.8-4.6,2.5
				c-2.3-0.2-4-2.1-4.1-4.3C300.2,78.4,306.7,63.2,311.1,54.5z M71.8,65.4c15.8-15,34.2-27.2,54.5-35.9c8.4,5.7,31.5,22.6,48.6,45.6
				c2.1,2.8,2.8,6.4,1.9,9.8c-0.9,3.4-3.2,6.2-6.4,7.6c-18,8.2-41.8,21-53.2,35.1c-2.6,3.3-6.9,4.7-10.9,3.7
				c-15.2-3.9-27.4,0.7-34.4,13c-8.8,15.4,3.5,30.4,14.3,43.7c1.2,1.5,2.5,3,3.7,4.5C78.6,185.7,69.9,177,64,166.4
				C54,148.1,47.2,115.7,71.8,65.4z M15,197.7c0-35.9,10.4-69.3,28.3-97.6c-7.7,33.7-1,57.8,7.6,73.5c9.2,16.7,23.9,29.5,43.8,38.1
				c4.1,1.8,7.1,5.3,8.2,9.6c0,0,0.4,1.8,0.6,2.8c1.4,6.8,2.4,17,0.9,30c-2.2,19.2,6.3,38,22.3,49.2l14.9,10.4
				c-0.9,10.6-2.2,37.5,5.5,59.7C70.9,351.3,15,280.9,15,197.7z M375.3,228.3c-0.4-7.9-4.2-15.2-10.4-20.2c-6.1-4.9-13.9-7-21.6-5.8
				l-0.6,0.1c-5.9,0.9-11.7-0.6-16.4-4.2c-4.8-3.6-7.9-9-8.7-15c-0.9-6.6-1.2-13-0.9-18.8c0.2-4.1-3-7.6-7.2-7.8
				c-4.1-0.2-7.6,3-7.8,7.2c-0.3,6.8,0,14,1,21.5c1.3,10,6.5,18.9,14.5,25c8,6,17.8,8.5,27.6,7.1l0.8-0.1c3.5-0.6,7.1,0.4,9.9,2.7
				c2.9,2.3,4.6,5.7,4.8,9.4c0.7,12.9,3.5,24.1,8.2,33.5c-26.2,68.8-92.9,117.9-170.8,117.9c-7.1,0-14.2-0.4-21.1-1.2
				c2.5-2.5,5.5-5.6,9-9.3c2.9-3,2.8-7.7-0.2-10.6s-7.7-2.8-10.6,0.2c-5.2,5.4-9.2,9.5-12.2,12.5c-10.3-24.1-5.7-60.7-5.7-61.1
				c0.4-2.8-0.9-5.5-3.1-7.1l-18.6-13c-11.4-8-17.5-21.4-15.9-35.1c1.2-10.7,1.1-21.2-0.4-30.8c13.2-3.6,26-5.4,34.9-6.4
				c6.6-0.7,13.1,1.5,17.8,6c10.9,10.4,27.7,22.6,50,36.2c6.6,4,11.2,10.7,12.5,18.4c1.3,7.6-0.7,15.4-5.6,21.4
				c-6.7,8.1-14.8,17.5-24.2,27.8c-2.8,3.1-2.6,7.8,0.5,10.6c1.4,1.3,3.2,2,5.1,2c2,0,4.1-0.8,5.5-2.4c9.6-10.5,17.9-20.1,24.7-28.4
				c7.6-9.3,10.9-21.5,8.8-33.4c-2-11.9-9.1-22.4-19.5-28.7c-21.1-12.8-37.5-24.6-47.4-34.2c-7.9-7.6-18.8-11.3-29.8-10.1
				c-9.1,1-21.9,2.8-35.3,6.3c-2.7-11.6-11.3-22.1-19-31.5c-10-12.2-16.3-20.7-12.9-26.7c2.2-3.9,6.5-8.7,17.7-5.9
				c9.6,2.4,19.9-1,26.2-8.8c7.5-9.2,24.4-20.2,47.8-30.9c7.3-3.4,12.7-9.8,14.7-17.6c2-7.8,0.4-16-4.4-22.5
				c-14.3-19.2-32-34.1-43.6-42.9c17.2-5.4,35.5-8.3,54.4-8.3c37.4,0,72.1,11.3,101.1,30.6c-5.1,9.6-13.7,28.6-13.2,48.1
				c0.3,9.7,7.8,17.8,17.5,18.8c0.7,0.1,1.4,0.1,2,0.1c7.4,0,14.2-4.2,17.6-10.9c2.5-5.1,5.8-5.9,6.8-6.1c3.3-0.8,11-0.6,25.2,9.3
				c-3.1,0.1-6.6-0.1-10.5-0.5c-5.7-0.7-11.4,0.7-16,4c-3,2.2-5.9,4.7-8.5,7.5c-2.8,3-2.6,7.8,0.4,10.6c1.4,1.3,3.3,2,5.1,2
				c2,0,4-0.8,5.5-2.4c1.9-2.1,4-4,6.2-5.5c1.5-1.1,3.4-1.6,5.4-1.3c8.4,1,15.6,0.7,20.3,0.2c11.3,23.8,17.7,50.3,17.7,78.3
				c0,13.5-1.5,26.6-4.3,39.3C375.8,234.2,375.5,231.3,375.3,228.3z"/>
			<path class="st0" d="M202.3,346c-0.2-0.5-0.4-0.9-0.7-1.3c-0.3-0.4-0.6-0.8-0.9-1.1c-0.3-0.4-0.7-0.7-1.1-0.9
				c-0.4-0.3-0.8-0.5-1.3-0.7c-0.4-0.2-0.9-0.3-1.4-0.4c-1-0.2-2-0.2-2.9,0c-0.5,0.1-0.9,0.2-1.4,0.4c-0.4,0.2-0.9,0.4-1.3,0.7
				c-0.4,0.3-0.8,0.6-1.1,0.9c-0.4,0.3-0.7,0.7-0.9,1.1c-0.3,0.4-0.5,0.8-0.7,1.3c-0.2,0.5-0.3,0.9-0.4,1.4c-0.1,0.5-0.1,1-0.1,1.5
				s0.1,1,0.1,1.5c0.1,0.5,0.2,1,0.4,1.4c0.2,0.5,0.4,0.9,0.7,1.3c0.3,0.4,0.6,0.8,0.9,1.1c0.3,0.4,0.7,0.7,1.1,0.9
				c0.4,0.3,0.8,0.5,1.3,0.7c0.4,0.2,0.9,0.3,1.4,0.4c0.5,0.1,1,0.1,1.5,0.1s1,0,1.5-0.1c0.5-0.1,0.9-0.2,1.4-0.4
				c0.4-0.2,0.9-0.4,1.3-0.7c0.4-0.3,0.8-0.6,1.1-0.9c0.4-0.3,0.7-0.7,0.9-1.1c0.3-0.4,0.5-0.8,0.7-1.3c0.2-0.5,0.3-0.9,0.4-1.4
				c0.1-0.5,0.1-1,0.1-1.5s-0.1-1-0.1-1.5C202.6,346.9,202.5,346.5,202.3,346z"/>
			<path class="st0" d="M233.5,33.4c-1.2-1.1-13-10.8-50.4-13.9c-5.5-0.5-7.9,3.2-8.4,4.4c-2.7,5.3,0.7,9.3,5.9,15.4
				c6,7,16,18.8,17.5,30.7c0.4,3,2.6,5.5,5.5,6.3c0.6,0.2,1.3,0.3,1.9,0.3c2.3,0,4.5-1.1,6-2.9l23-30
				C236.8,40.5,236.4,36,233.5,33.4z M208.3,53c-3-6.3-7-11.9-10.7-16.6c9.2,1.5,15.5,3.5,19.6,5.1L208.3,53z"/>
			<path class="st0" d="M317.3,135.5c-0.4-0.3-0.8-0.5-1.3-0.7c-0.5-0.2-0.9-0.3-1.4-0.4c-1-0.2-2-0.2-2.9,0c-0.5,0.1-1,0.2-1.4,0.4
				c-0.5,0.2-0.9,0.4-1.3,0.7c-0.4,0.3-0.8,0.6-1.1,0.9c-0.3,0.4-0.7,0.7-0.9,1.1c-0.3,0.4-0.5,0.9-0.7,1.3
				c-0.2,0.4-0.3,0.9-0.4,1.4c-0.1,0.5-0.1,1-0.1,1.5s0,1,0.1,1.5c0.1,0.5,0.2,0.9,0.4,1.4c0.2,0.4,0.4,0.9,0.7,1.3
				c0.3,0.4,0.6,0.8,0.9,1.1c1.4,1.4,3.3,2.2,5.3,2.2c0.5,0,1-0.1,1.5-0.1c0.5-0.1,1-0.2,1.4-0.4c0.5-0.2,0.9-0.4,1.3-0.7
				c0.4-0.3,0.8-0.6,1.1-0.9c0.3-0.4,0.7-0.7,0.9-1.1c0.3-0.4,0.5-0.8,0.7-1.3c0.2-0.5,0.3-0.9,0.4-1.4c0.1-0.5,0.1-1,0.1-1.5
				c0-2-0.8-3.9-2.2-5.3C318.1,136.1,317.7,135.8,317.3,135.5z"/>
		</g>
	</g>
</g>
</svg>
