<?xml version="1.0" encoding="utf-8"?>
<!-- Generator: Adobe Illustrator 19.2.0, SVG Export Plug-In . SVG Version: 6.00 Build 0)  -->
<svg version="1.1" id="Layer_1" xmlns="http://www.w3.org/2000/svg" xmlns:xlink="http://www.w3.org/1999/xlink" x="0px" y="0px"
	 viewBox="0 0 464 464" style="enable-background:new 0 0 464 464;" xml:space="preserve">
<style type="text/css">
	.st0{fill:#FFFFFF;}
</style>
<g>
	<g>
		<g>
			<path class="st0" d="M239.5,112.5V99.6c0-4.1-3.4-7.5-7.5-7.5s-7.5,3.4-7.5,7.5v12.9C144.9,116.4,81.4,182.4,81.4,263
				c0,0,0,0,0,0c0,0,0,0,0,0c0,0,0,0,0,0c0,0,0,0,0,0c0,4.1,3.4,7.5,7.5,7.5c1.2,0,2.4-0.3,3.4-0.8c2.6-1.2,37.1-16.5,66.6,10.5
				c2.9,2.6,7.3,2.6,10.1,0c13.4-12.3,33.3-19.9,55.4-21.4v176.8c0,15.7,12.7,28.4,28.4,28.4s28.4-12.7,28.4-28.4
				c0-4.1-3.4-7.5-7.5-7.5s-7.5,3.4-7.5,7.5c0,7.4-6,13.4-13.4,13.4c-7.4,0-13.4-6-13.4-13.4V258.8c22.2,1.4,42.3,9,55.8,21.4
				c1.4,1.3,3.2,2,5.1,2c1.8,0,3.6-0.7,5.1-2c30-27.5,65.2-11.1,66.6-10.4c2.3,1.1,5.1,1,7.3-0.4c2.2-1.4,3.5-3.8,3.5-6.4
				C382.7,182.4,319.1,116.4,239.5,112.5z M156.8,260c-11.5-7-24.5-10.7-38.3-10.7c-0.6,0-1.3,0-1.9,0c-7.8,0.2-14.6,1.5-19.9,2.9
				c4.7-59.9,48.5-109.1,105.9-121.8c-7.3,8.6-14.5,20-21.1,33.8C167.6,193.3,158.9,227.5,156.8,260z M307.2,259.9
				c-0.6-9.2-1.7-18.6-3.3-28c-0.7-4.1-4.6-6.8-8.7-6.1c-4.1,0.7-6.8,4.6-6.1,8.7c1.5,8.3,2.5,16.6,3,24.8
				c-16.6-10.1-37.7-15.8-60.1-15.8c-22.4,0-43.5,5.6-60.1,15.8c2.1-30.2,10.3-61.7,23.1-88.5c13.7-28.6,29-43.5,37-43.5
				c8.7,0,29,19.7,44.8,62c1.5,3.9,5.8,5.8,9.7,4.4c3.9-1.5,5.8-5.8,4.4-9.7c-7.4-19.9-18-39.8-29.6-53.6
				c57.4,12.7,101.3,61.8,106,121.8C353.8,248.6,330.3,245.7,307.2,259.9z"/>
			<path class="st0" d="M298.2,207C298.1,206.7,298.2,206.8,298.2,207c-1.2-2.8-3.9-4.6-6.9-4.6c-3.1,0-6,2-7.1,5
				c-1,2.9-0.2,6.2,2.2,8.2c2.6,2.2,6.4,2.4,9.2,0.5C298.4,214,299.5,210.2,298.2,207C298.3,207.1,298.3,207.2,298.2,207z"/>
			<path class="st0" d="M88.9,42.5c4.1,0,7.5-3.4,7.5-7.5V7.5C96.4,3.4,93,0,88.9,0s-7.5,3.4-7.5,7.5V35
				C81.4,39.1,84.7,42.5,88.9,42.5z"/>
			<path class="st0" d="M88.9,174.2c4.1,0,7.5-3.4,7.5-7.5V61c0-4.1-3.4-7.5-7.5-7.5s-7.5,3.4-7.5,7.5v105.7
				C81.4,170.9,84.7,174.2,88.9,174.2z"/>
			<path class="st0" d="M124.6,131.8c4.1,0,7.5-3.4,7.5-7.5V7.5c0-4.1-3.4-7.5-7.5-7.5s-7.5,3.4-7.5,7.5v116.8
				C117.1,128.4,120.5,131.8,124.6,131.8z"/>
			<path class="st0" d="M160.4,71.1c4.1,0,7.5-3.4,7.5-7.5V7.5c0-4.1-3.4-7.5-7.5-7.5s-7.5,3.4-7.5,7.5v56.1
				C152.9,67.8,156.3,71.1,160.4,71.1z"/>
			<path class="st0" d="M160.4,108.6c4.1,0,7.5-3.4,7.5-7.5V86.8c0-4.1-3.4-7.5-7.5-7.5s-7.5,3.4-7.5,7.5v14.2
				C152.9,105.2,156.3,108.6,160.4,108.6z"/>
			<path class="st0" d="M196.2,96.2c4.1,0,7.5-3.4,7.5-7.5V7.5c0-4.1-3.4-7.5-7.5-7.5s-7.5,3.4-7.5,7.5v81.2
				C188.7,92.9,192.1,96.2,196.2,96.2z"/>
			<path class="st0" d="M232,72.9c4.1,0,7.5-3.4,7.5-7.5V7.5c0-4.1-3.4-7.5-7.5-7.5s-7.5,3.4-7.5,7.5v57.9
				C224.5,69.5,227.9,72.9,232,72.9z"/>
			<path class="st0" d="M267.8,23.5c4.1,0,7.5-3.4,7.5-7.5V7.5c0-4.1-3.4-7.5-7.5-7.5s-7.5,3.4-7.5,7.5V16
				C260.3,20.1,263.7,23.5,267.8,23.5z"/>
			<path class="st0" d="M267.8,96.2c4.1,0,7.5-3.4,7.5-7.5V39.5c0-4.1-3.4-7.5-7.5-7.5s-7.5,3.4-7.5,7.5v49.2
				C260.3,92.9,263.7,96.2,267.8,96.2z"/>
			<path class="st0" d="M303.6,108.6c4.1,0,7.5-3.4,7.5-7.5V7.5c0-4.1-3.4-7.5-7.5-7.5s-7.5,3.4-7.5,7.5v93.6
				C296.1,105.2,299.5,108.6,303.6,108.6z"/>
			<path class="st0" d="M339.4,100c4.1,0,7.5-3.4,7.5-7.5v-85c0-4.1-3.4-7.5-7.5-7.5s-7.5,3.4-7.5,7.5v85
				C331.9,96.6,335.3,100,339.4,100z"/>
			<path class="st0" d="M339.4,131.8c4.1,0,7.5-3.4,7.5-7.5V115c0-4.1-3.4-7.5-7.5-7.5s-7.5,3.4-7.5,7.5v9.3
				C331.9,128.4,335.3,131.8,339.4,131.8z"/>
			<path class="st0" d="M375.2,0c-4.1,0-7.5,3.4-7.5,7.5v159.2c0,4.1,3.4,7.5,7.5,7.5s7.5-3.4,7.5-7.5V7.5
				C382.7,3.4,379.3,0,375.2,0z"/>
		</g>
	</g>
</g>
</svg>
