<?xml version="1.0" encoding="utf-8"?>
<!-- Generator: Adobe Illustrator 19.2.0, SVG Export Plug-In . SVG Version: 6.00 Build 0)  -->
<svg version="1.1" id="Layer_1" xmlns="http://www.w3.org/2000/svg" xmlns:xlink="http://www.w3.org/1999/xlink" x="0px" y="0px"
	 viewBox="0 0 395.5 395.5" style="enable-background:new 0 0 395.5 395.5;" xml:space="preserve">
<style type="text/css">
	.st0{fill:#FFFFFF;}
</style>
<g>
	<g>
		<g>
			<path class="st0" d="M349.5,129c-0.5-36.4-30.3-65.9-66.8-65.9c-8.2,0-16.4,1.5-24.1,4.5c-5.9-17.8-16.9-33.9-31.6-45.8
				C209.6,7.8,187.7,0,165.2,0c-52.8,0-96,41.8-98.2,94.1c-16.8,5-31.9,15-43.1,28.7c-12.6,15.5-19.5,35-19.5,55
				c0,48.2,39.2,87.4,87.4,87.4h227.9c39.4,0,71.4-32,71.4-71.4C391.1,166,374.6,140.5,349.5,129z M319.7,250.2H91.8
				c-39.9,0-72.4-32.5-72.4-72.4c0-16.6,5.7-32.8,16.2-45.6c10.3-12.7,24.7-21.6,40.5-25.1c3.5-0.8,5.9-3.9,5.9-7.4l0-0.3
				c0-0.4,0-0.8,0-1.2c0-45.9,37.4-83.3,83.3-83.3c19.3,0,37.4,6.4,52.3,18.5c14.5,11.8,24.8,28.2,28.9,46.3
				c0.5,2.3,2.1,4.2,4.3,5.2c2.2,1,4.6,0.8,6.7-0.3c7.7-4.3,16.4-6.6,25.2-6.6c28.6,0,51.8,23.2,51.8,51.8c0,1,0,2.1-0.1,3.5
				c-0.2,3.3,1.8,6.4,4.9,7.5c22,8.2,36.8,29.4,36.8,52.9C376.1,224.9,350.8,250.2,319.7,250.2z"/>
			<path class="st0" d="M68.9,275.4c-4.1,0-7.5,3.4-7.5,7.5v24.7c0,4.1,3.4,7.5,7.5,7.5s7.5-3.4,7.5-7.5v-24.7
				C76.4,278.7,73,275.4,68.9,275.4z"/>
			<path class="st0" d="M68.9,323.5c-4.1,0-7.5,3.4-7.5,7.5v57c0,4.1,3.4,7.5,7.5,7.5s7.5-3.4,7.5-7.5v-57
				C76.4,326.9,73,323.5,68.9,323.5z"/>
			<path class="st0" d="M101.1,275.4c-4.1,0-7.5,3.4-7.5,7.5V388c0,4.1,3.4,7.5,7.5,7.5s7.5-3.4,7.5-7.5V282.9
				C108.6,278.7,105.2,275.4,101.1,275.4z"/>
			<path class="st0" d="M133.3,275.4c-4.1,0-7.5,3.4-7.5,7.5v48.8c0,4.1,3.4,7.5,7.5,7.5s7.5-3.4,7.5-7.5v-48.8
				C140.8,278.7,137.5,275.4,133.3,275.4z"/>
			<path class="st0" d="M133.3,346.8c-4.1,0-7.5,3.4-7.5,7.5V388c0,4.1,3.4,7.5,7.5,7.5s7.5-3.4,7.5-7.5v-33.7
				C140.8,350.1,137.5,346.8,133.3,346.8z"/>
			<path class="st0" d="M165.5,275.4c-4.1,0-7.5,3.4-7.5,7.5V388c0,4.1,3.4,7.5,7.5,7.5s7.5-3.4,7.5-7.5V282.9
				C173,278.7,169.7,275.4,165.5,275.4z"/>
			<path class="st0" d="M230,353.5c-4.1,0-7.5,3.4-7.5,7.5v27c0,4.1,3.4,7.5,7.5,7.5s7.5-3.4,7.5-7.5v-27
				C237.5,356.8,234.1,353.5,230,353.5z"/>
			<path class="st0" d="M230,275.4c-4.1,0-7.5,3.4-7.5,7.5v54.9c0,4.1,3.4,7.5,7.5,7.5s7.5-3.4,7.5-7.5v-54.9
				C237.5,278.7,234.1,275.4,230,275.4z"/>
			<path class="st0" d="M197.7,275.4c-4.1,0-7.5,3.4-7.5,7.5v10.5c0,4.1,3.4,7.5,7.5,7.5s7.5-3.4,7.5-7.5v-10.5
				C205.2,278.7,201.9,275.4,197.7,275.4z"/>
			<path class="st0" d="M197.7,311.7c-4.1,0-7.5,3.4-7.5,7.5V388c0,4.1,3.4,7.5,7.5,7.5s7.5-3.4,7.5-7.5v-68.8
				C205.2,315.1,201.9,311.7,197.7,311.7z"/>
			<path class="st0" d="M262.2,275.4c-4.1,0-7.5,3.4-7.5,7.5v41.6c0,4.1,3.4,7.5,7.5,7.5s7.5-3.4,7.5-7.5v-41.6
				C269.7,278.7,266.3,275.4,262.2,275.4z"/>
			<path class="st0" d="M262.2,339.7c-4.1,0-7.5,3.4-7.5,7.5V388c0,4.1,3.4,7.5,7.5,7.5s7.5-3.4,7.5-7.5v-40.8
				C269.7,343,266.3,339.7,262.2,339.7z"/>
			<path class="st0" d="M294.4,275.4c-4.1,0-7.5,3.4-7.5,7.5v75.9c0,4.1,3.4,7.5,7.5,7.5s7.5-3.4,7.5-7.5v-75.9
				C301.9,278.7,298.5,275.4,294.4,275.4z"/>
			<path class="st0" d="M294.4,376.1c-4.1,0-7.5,3.4-7.5,7.5v4.4c0,4.1,3.4,7.5,7.5,7.5s7.5-3.4,7.5-7.5v-4.4
				C301.9,379.5,298.5,376.1,294.4,376.1z"/>
			<path class="st0" d="M326.6,275.4c-4.1,0-7.5,3.4-7.5,7.5V388c0,4.1,3.4,7.5,7.5,7.5s7.5-3.4,7.5-7.5V282.9
				C334.1,278.7,330.7,275.4,326.6,275.4z"/>
		</g>
	</g>
</g>
</svg>
