<?xml version="1.0" encoding="utf-8"?>
<!-- Generator: Adobe Illustrator 19.2.0, SVG Export Plug-In . SVG Version: 6.00 Build 0)  -->
<svg version="1.1" id="Layer_1" xmlns="http://www.w3.org/2000/svg" xmlns:xlink="http://www.w3.org/1999/xlink" x="0px" y="0px"
	 viewBox="0 0 472 472" style="enable-background:new 0 0 472 472;" xml:space="preserve">
<style type="text/css">
	.st0{fill:#FFFFFF;}
</style>
<g>
	<g>
		<g>
			<path class="st0" d="M243.2,88.2c3,2.9,8,2.9,10.8-0.2c2.7-2.9,2.5-7.5-0.2-10.4c-3-2.9-7.7-2.9-10.6,0c-2.1,2.1-2.8,5.4-1.6,8.2
				C241.9,86.6,242.5,87.4,243.2,88.2z"/>
			<path class="st0" d="M241.6,85.7C241.4,85.3,241.7,86.2,241.6,85.7L241.6,85.7z"/>
			<path class="st0" d="M440.7,125.1c-3-1.7-6.8-1.2-9.2,1.4c-5.5,5.8-12,10.4-19.4,13.6c-14.6,6.4-30.9,6.8-45.8,0.9
				c-14.9-5.8-26.6-17.1-33.1-31.7C320,79,333.8,43.6,364,30.4c7.4-3.2,15.2-4.9,23.2-5c3.5,0,6.4-2.5,7.2-5.8
				c0.8-3.4-0.9-6.8-4-8.4c-27.9-14-60.4-14.8-89-2.3c-22.5,9.9-41,27.5-51.8,49.5c-1.8,3.7-0.3,8.2,3.4,10c3.7,1.8,8.2,0.3,10-3.4
				c9.3-18.9,25.1-33.9,44.4-42.4c16.3-7.1,34.1-9.2,51.2-6.2c-0.3,0.1-0.5,0.2-0.8,0.3c-18.3,8-32.4,22.7-39.7,41.3
				c-7.3,18.6-6.9,39,1.2,57.3c8,18.3,22.7,32.4,41.3,39.7c18.6,7.3,39,6.9,57.3-1.2c0.3-0.1,0.5-0.2,0.8-0.3
				c-9.4,14.6-23,26.3-39.3,33.4c-3.5,1.5-7.1,2.9-10.8,3.9c-9.2-25.9-34-44.5-63-44.5c-8.2,0-16.4,1.5-24.1,4.5
				c-5.9-17.8-16.9-33.9-31.6-45.8c-17.4-14.1-39.3-21.8-61.8-21.8c-52.8,0-96,41.8-98.2,94.1c-16.8,5-31.9,15-43.1,28.7
				c-12.6,15.5-19.5,35-19.5,55c0,48.2,39.2,87.4,87.4,87.4h227.9c39.4,0,71.4-32,71.4-71.4c0-27.9-16.5-53.3-41.5-64.9
				c0-2.3-0.2-4.5-0.4-6.7c4.5-1.3,9-2.9,13.4-4.8c28.6-12.5,50-36.9,58.6-67C445.2,130.3,443.7,126.8,440.7,125.1z M399.2,277
				c0,31.1-25.3,56.4-56.4,56.4H114.9c-39.9,0-72.4-32.5-72.4-72.4c0-16.6,5.7-32.8,16.2-45.6c10.3-12.7,24.7-21.6,40.5-25.1
				c3.5-0.8,5.9-3.9,5.9-7.5l0-0.2c0-0.4,0-0.8,0-1.2c0-45.9,37.4-83.3,83.3-83.3c19.3,0,37.4,6.4,52.3,18.5
				c14.5,11.8,24.8,28.2,28.9,46.3c0.5,2.3,2.1,4.2,4.3,5.2c2.2,1,4.6,0.8,6.7-0.3c7.7-4.3,16.4-6.6,25.2-6.6
				c28.6,0,51.8,23.2,51.8,51.8c0,1,0,2.1-0.1,3.5c-0.2,3.3,1.8,6.4,4.9,7.5C384.4,232.3,399.2,253.5,399.2,277z"/>
			<path class="st0" d="M92,366.6c-4.1,0-7.5,3.4-7.5,7.5v24.7c0,4.1,3.4,7.5,7.5,7.5s7.5-3.4,7.5-7.5v-24.7
				C99.5,370,96.1,366.6,92,366.6z"/>
			<path class="st0" d="M92,414.7c-4.1,0-7.5,3.4-7.5,7.5v42.3c0,4.1,3.4,7.5,7.5,7.5s7.5-3.4,7.5-7.5v-42.3
				C99.5,418.1,96.1,414.7,92,414.7z"/>
			<path class="st0" d="M124.2,366.6c-4.1,0-7.5,3.4-7.5,7.5v90.4c0,4.1,3.4,7.5,7.5,7.5c4.1,0,7.5-3.4,7.5-7.5v-90.4
				C131.7,370,128.3,366.6,124.2,366.6z"/>
			<path class="st0" d="M156.4,366.6c-4.1,0-7.5,3.4-7.5,7.5v48.8c0,4.1,3.4,7.5,7.5,7.5s7.5-3.4,7.5-7.5v-48.8
				C163.9,370,160.6,366.6,156.4,366.6z"/>
			<path class="st0" d="M156.4,438c-4.1,0-7.5,3.4-7.5,7.5v19c0,4.1,3.4,7.5,7.5,7.5s7.5-3.4,7.5-7.5v-19
				C163.9,441.3,160.6,438,156.4,438z"/>
			<path class="st0" d="M188.6,366.6c-4.1,0-7.5,3.4-7.5,7.5v90.4c0,4.1,3.4,7.5,7.5,7.5s7.5-3.4,7.5-7.5v-90.4
				C196.1,370,192.8,366.6,188.6,366.6z"/>
			<path class="st0" d="M253.1,444.7c-4.1,0-7.5,3.4-7.5,7.5v12.3c0,4.1,3.4,7.5,7.5,7.5c4.1,0,7.5-3.4,7.5-7.5v-12.3
				C260.6,448,257.2,444.7,253.1,444.7z"/>
			<path class="st0" d="M253.1,366.6c-4.1,0-7.5,3.4-7.5,7.5V429c0,4.1,3.4,7.5,7.5,7.5c4.1,0,7.5-3.4,7.5-7.5v-54.9
				C260.6,370,257.2,366.6,253.1,366.6z"/>
			<path class="st0" d="M220.8,366.6c-4.1,0-7.5,3.4-7.5,7.5v10.5c0,4.1,3.4,7.5,7.5,7.5s7.5-3.4,7.5-7.5v-10.5
				C228.3,370,225,366.6,220.8,366.6z"/>
			<path class="st0" d="M220.8,402.9c-4.1,0-7.5,3.4-7.5,7.5v54.1c0,4.1,3.4,7.5,7.5,7.5s7.5-3.4,7.5-7.5v-54.1
				C228.3,406.3,225,402.9,220.8,402.9z"/>
			<path class="st0" d="M285.3,366.6c-4.1,0-7.5,3.4-7.5,7.5v41.6c0,4.1,3.4,7.5,7.5,7.5s7.5-3.4,7.5-7.5v-41.6
				C292.8,370,289.4,366.6,285.3,366.6z"/>
			<path class="st0" d="M285.3,430.9c-4.1,0-7.5,3.4-7.5,7.5v26.1c0,4.1,3.4,7.5,7.5,7.5s7.5-3.4,7.5-7.5v-26.1
				C292.8,434.2,289.4,430.9,285.3,430.9z"/>
			<path class="st0" d="M317.5,366.6c-4.1,0-7.5,3.4-7.5,7.5V388c0,4.1,3.4,7.5,7.5,7.5s7.5-3.4,7.5-7.5v-13.9
				C325,370,321.6,366.6,317.5,366.6z"/>
			<path class="st0" d="M317.5,405.4c-4.1,0-7.5,3.4-7.5,7.5v51.6c0,4.1,3.4,7.5,7.5,7.5s7.5-3.4,7.5-7.5v-51.6
				C325,408.8,321.6,405.4,317.5,405.4z"/>
			<path class="st0" d="M349.7,366.6c-4.1,0-7.5,3.4-7.5,7.5v90.4c0,4.1,3.4,7.5,7.5,7.5s7.5-3.4,7.5-7.5v-90.4
				C357.2,370,353.8,366.6,349.7,366.6z"/>
		</g>
	</g>
</g>
</svg>
