<?xml version="1.0" encoding="utf-8"?>
<!-- Generator: Adobe Illustrator 19.2.0, SVG Export Plug-In . SVG Version: 6.00 Build 0)  -->
<svg version="1.1" id="Layer_1" xmlns="http://www.w3.org/2000/svg" xmlns:xlink="http://www.w3.org/1999/xlink" x="0px" y="0px"
	 viewBox="0 0 360.1 360.1" style="enable-background:new 0 0 360.1 360.1;" xml:space="preserve">
<style type="text/css">
	.st0{fill:#FFFFFF;}
</style>
<g>
	<g>
		<g>
			<path class="st0" d="M287.5,168.2l-45.1-73.4c-2.2-3.5-6.8-4.6-10.3-2.5c-3.5,2.2-4.6,6.8-2.5,10.3l45.1,73.4
				c27,43.9,20.3,100.1-16.1,136.6c-43.3,43.3-113.7,43.3-157,0C65.1,276.2,58.5,220,85.4,176.1l94.6-154.2L205.4,63
				c2.2,3.5,6.8,4.6,10.3,2.5c3.5-2.2,4.6-6.8,2.5-10.3L186.5,3.6c-1.4-2.2-3.8-3.6-6.4-3.6s-5,1.4-6.4,3.6l-101,164.6
				c-14.7,24-21,52.7-17.7,80.7s16.1,54.4,36,74.3c23.8,23.8,55.4,36.9,89.1,36.9s65.3-13.1,89.1-36.9c19.9-19.9,32.7-46.3,36-74.3
				C308.5,220.9,302.2,192.2,287.5,168.2z"/>
			<path class="st0" d="M216,78.2c0,2,0.8,3.9,2.2,5.3c2.6,2.6,6.8,2.9,9.8,0.7c3-2.2,3.9-6.5,2.1-9.7c-1.7-3-5.4-4.5-8.7-3.5
				C218.2,72,216,75,216,78.2z"/>
		</g>
	</g>
</g>
</svg>
