<?xml version="1.0" encoding="utf-8"?>
<!-- Generator: Adobe Illustrator 19.2.0, SVG Export Plug-In . SVG Version: 6.00 Build 0)  -->
<svg version="1.1" id="Layer_1" xmlns="http://www.w3.org/2000/svg" xmlns:xlink="http://www.w3.org/1999/xlink" x="0px" y="0px"
	 viewBox="0 0 406.9 406.9" style="enable-background:new 0 0 406.9 406.9;" xml:space="preserve">
<style type="text/css">
	.st0{fill:#FFFFFF;}
</style>
<g>
	<g>
		<path class="st0" d="M399.4,195.9h-55.9l31.6-54.7c2.1-3.6,0.8-8.2-2.7-10.2s-8.2-0.8-10.2,2.7l-35.9,62.2h-86.8
			c-1.6-7.8-5.7-14.8-11.4-20l43.3-75h71.8c4.1,0,7.5-3.4,7.5-7.5s-3.4-7.5-7.5-7.5H280l28-48.4c2.1-3.6,0.8-8.2-2.7-10.2
			c-3.6-2.1-8.2-0.8-10.2,2.7l-28,48.4l-31.6-54.7c-2.1-3.6-6.7-4.8-10.2-2.7c-3.6,2.1-4.8,6.7-2.7,10.2l35.9,62.2l-43.2,74.9
			c-3.8-1.3-7.8-2-12-2c-3.9,0-7.8,0.6-11.3,1.8l-43.1-74.7l35.9-62.2c2.1-3.6,0.8-8.2-2.7-10.2c-3.6-2.1-8.2-0.8-10.2,2.7
			l-31.6,54.7L112,30c-2.1-3.6-6.7-4.8-10.2-2.7s-4.8,6.7-2.7,10.2l28,48.4l-63.2,0c-4.1,0-7.5,3.4-7.5,7.5s3.4,7.5,7.5,7.5l71.8,0
			l43,74.5c-6,5.2-10.3,12.4-12,20.5H80.7l-35.9-62.2c-2.1-3.6-6.7-4.8-10.2-2.7s-4.8,6.7-2.7,10.2L63.4,196H7.5
			c-4.1,0-7.5,3.4-7.5,7.5s3.4,7.5,7.5,7.5h55.9l-31.6,54.7c-2.1,3.6-0.8,8.2,2.7,10.2c1.2,0.7,2.5,1,3.7,1c2.6,0,5.1-1.3,6.5-3.8
			L80.7,211h85.9c1.7,8.1,6,15.2,12,20.5l-43,74.5H63.8c-4.1,0-7.5,3.4-7.5,7.5s3.4,7.5,7.5,7.5h63.2l-28,48.4
			c-2.1,3.6-0.8,8.2,2.7,10.2c1.2,0.7,2.5,1,3.7,1c2.6,0,5.1-1.3,6.5-3.8l28-48.4l31.6,54.7c1.4,2.4,3.9,3.8,6.5,3.8
			c1.3,0,2.6-0.3,3.7-1c3.6-2.1,4.8-6.7,2.7-10.2l-35.9-62.2l43.1-74.7c3.6,1.1,7.4,1.8,11.3,1.8c4.2,0,8.3-0.7,12-2l43.2,74.9
			l-35.9,62.2c-2.1,3.6-0.8,8.2,2.7,10.2c1.2,0.7,2.5,1,3.7,1c2.6,0,5.1-1.3,6.5-3.8l31.6-54.7l28,48.4c1.4,2.4,3.9,3.8,6.5,3.8
			c1.3,0,2.6-0.3,3.7-1c3.6-2.1,4.8-6.7,2.7-10.2L280,321l63.2,0c4.1,0,7.5-3.4,7.5-7.5s-3.4-7.5-7.5-7.5l-71.8,0l-43.3-75
			c5.7-5.2,9.8-12.1,11.4-20h86.7l35.9,62.2c1.4,2.4,3.9,3.8,6.5,3.8c1.3,0,2.6-0.3,3.7-1c3.6-2.1,4.8-6.7,2.7-10.2l-31.6-54.7h55.9
			c4.1,0,7.5-3.4,7.5-7.5C406.9,199.3,403.5,195.9,399.4,195.9z M225.2,203.5c0,12.2-9.9,22.1-22.1,22.1c-12.2,0-22.1-9.9-22.1-22.1
			s9.9-22.1,22.1-22.1C215.2,181.3,225.1,191.2,225.2,203.5C225.2,203.4,225.2,203.4,225.2,203.5
			C225.2,203.5,225.2,203.5,225.2,203.5z"/>
	</g>
</g>
</svg>
